<?xml version="1.0" encoding="UTF-8"?>
<svg width="256" height="256" viewBox="0 0 256 256" xmlns="http://www.w3.org/2000/svg">
  <!-- 背景圆形 -->
  <circle cx="128" cy="128" r="120" fill="#2563eb" stroke="#1e40af" stroke-width="4"/>
  
  <!-- 麦克风主体 -->
  <rect x="105" y="80" width="46" height="80" rx="23" ry="23" fill="#ffffff"/>
  
  <!-- 麦克风网格 -->
  <line x1="115" y1="95" x2="141" y2="95" stroke="#2563eb" stroke-width="2"/>
  <line x1="115" y1="105" x2="141" y2="105" stroke="#2563eb" stroke-width="2"/>
  <line x1="115" y1="115" x2="141" y2="115" stroke="#2563eb" stroke-width="2"/>
  <line x1="115" y1="125" x2="141" y2="125" stroke="#2563eb" stroke-width="2"/>
  <line x1="115" y1="135" x2="141" y2="135" stroke="#2563eb" stroke-width="2"/>
  <line x1="115" y1="145" x2="141" y2="145" stroke="#2563eb" stroke-width="2"/>
  
  <!-- 麦克风底座 -->
  <rect x="120" y="160" width="16" height="30" fill="#ffffff"/>
  <rect x="110" y="185" width="36" height="8" rx="4" ry="4" fill="#ffffff"/>
  
  <!-- 声波效果 -->
  <path d="M 85 120 Q 75 120 75 128 Q 75 136 85 136" stroke="#ffffff" stroke-width="3" fill="none"/>
  <path d="M 75 115 Q 60 115 60 128 Q 60 141 75 141" stroke="#ffffff" stroke-width="3" fill="none"/>
  <path d="M 65 110 Q 45 110 45 128 Q 45 146 65 146" stroke="#ffffff" stroke-width="3" fill="none"/>
  
  <path d="M 171 120 Q 181 120 181 128 Q 181 136 171 136" stroke="#ffffff" stroke-width="3" fill="none"/>
  <path d="M 181 115 Q 196 115 196 128 Q 196 141 181 141" stroke="#ffffff" stroke-width="3" fill="none"/>
  <path d="M 191 110 Q 211 110 211 128 Q 211 146 191 146" stroke="#ffffff" stroke-width="3" fill="none"/>
  
  <!-- 录音指示灯 -->
  <circle cx="128" cy="60" r="8" fill="#ef4444"/>
  <circle cx="128" cy="60" r="4" fill="#ffffff"/>
</svg>
